<svg xmlns="http://www.w3.org/2000/svg" stroke-linecap="round" stroke-linejoin="round" stroke-miterlimit="10" viewBox="0 0 260 260"><path fill="#f4bf05" d="M83 227c0-16 16-29 35-29h99c19 1 35 14 35 30s-16 28-36 28h-98c-19 0-35-13-35-29z"/><path fill="#67bd7d" d="m133 127 31 24c11 9 10 21-3 26l-35 14-36 15c-13 5-22-2-20-16l5-39 4-39c2-14 12-18 23-10l31 25z"/><path fill="#70a4f8" d="M206 184c-19 0-35-15-35-33s16-33 35-33 35 15 35 33-16 33-35 33zM38 198c-19 0-35-15-35-33s16-33 35-33 35 15 35 33-16 33-35 33z"/></svg>