<svg xmlns="http://www.w3.org/2000/svg" viewBox="0 0 1024 1024"> <style>.B{opacity:.754}.C{fill:#ea4235}.D{fill:#f5bf05}.E{fill:#35a853}.F{fill:#4286f5}</style> <g transform="translate(124.99 41.69)" class="D" style="animation:Isp1o 4.5s linear infinite normal forwards"> <path d="M17.13-47.05c12.95 4.71 19.95 18.15 15.63 30.02L14.15 34.1C9.83 45.97-4.17 51.77-17.12 47.05S-37.09 28.9-32.77 17.03l18.61-51.13c4.32-11.87 18.32-17.66 31.28-12.95z" class="B"/> </g> <g transform="translate(124.83 1065.7)" class="D" style="animation:Isp2o 4.5s linear infinite normal forwards"> <path d="M17.13-47.05c12.95 4.7 19.95 18.15 15.63 30.02L14.15 34.1C9.83 45.97-4.17 51.77-17.12 47.05c-12.96-4.71-19.96-18.15-15.64-30.02l18.61-51.13c4.32-11.87 18.32-17.66 31.28-12.95Z" class="B"/> </g> <path d="M293.3 98.45a49.8 49.8 0 0 1 49.8 49.8v.15a49.8 49.8 0 0 1-99.6 0v-.16a49.8 49.8 0 0 1 49.8-49.8Z" class="B F"/> <g transform="translate(585.3 43.91)" class="E" style="animation:Isp4o 4.5s linear infinite normal forwards"> <path d="m-44.4-6.76 81.07-41.55c7.28-3.74 13.19-.71 13.19 6.76v83.1c0 7.47-5.9 10.5-13.2 6.77L-44.4 6.75c-7.28-3.73-7.28-9.79 0-13.52Z" class="B"/> </g> <g transform="translate(952.47 38.68)" class="C" style="animation:Isp5o 4.5s linear infinite normal forwards"> <path d="m-16.1-44.3 52.37 13.93a11.53 11.53 0 0 1 8.17 14.15L30.3 36.08A11.64 11.64 0 0 1 16.1 44.3l-52.37-13.92a11.52 11.52 0 0 1-8.17-14.15l14.13-52.3A11.64 11.64 0 0 1-16.1-44.3z" class="B"/> </g> <g transform="translate(579.96 179.8)" class="C" style="animation:Isp6o 4.5s linear infinite normal forwards"> <path d="M-40.8-23.6 8.28-46.57a11.53 11.53 0 0 1 15.36 5.6L46.4 8.18c2.69 5.8.18 12.7-5.61 15.42L-8.27 46.58a11.53 11.53 0 0 1-15.36-5.6L-46.4-8.18a11.64 11.64 0 0 1 5.62-15.41z" class="B"/> </g> <g transform="translate(359.06 583.68)" class="D" style="animation:Isp7o 4.5s linear infinite normal forwards"> <path d="M-13.36-48.26c13.29-3.67 26.79 3.21 30.16 15.38L31.3 19.57c3.37 12.16-4.67 25-17.95 28.69s-26.79-3.21-30.16-15.38L-31.3-19.57c-3.37-12.16 4.67-25 17.95-28.69Z" class="B"/> </g> <g transform="translate(788.9 132.71)" class="E" style="animation:Isp8o 4.5s linear infinite normal forwards"> <path d="m13.6-45.38 35.03 84.1c3.15 7.55-.34 13.2-7.78 12.61L-42 44.77c-7.45-.59-10-6.71-5.7-13.68L.12-46.44c4.3-6.97 10.33-6.5 13.48 1.06Z" class="B"/> </g> <g transform="translate(121.55 244)" class="D" style="animation:Isp9o 4.5s linear infinite normal forwards"> <path d="M49.34 8.54c-2.36 13.59-14.35 22.85-26.79 20.7l-53.62-9.29C-43.5 17.8-51.69 5.04-49.34-8.55s14.35-22.84 26.79-20.69l53.62 9.29C43.5-17.8 51.69-5.04 49.34 8.55Z" class="B"/> </g> <g transform="translate(966.6 936.17)" class="E" style="animation:Isp10o 4.5s linear infinite normal forwards"> <path d="m-.9-46.66 48.51 77.1c4.36 6.93 1.87 13.08-5.57 13.74l-82.8 7.3c-7.43.65-10.96-4.97-7.88-12.55l34.27-84.4c3.08-7.58 9.11-8.12 13.47-1.19Z" class="B"/> </g> <path d="M949.8 670a49.8 49.8 0 0 1 49.79 49.8v.15a49.8 49.8 0 0 1-99.59 0v-.16A49.8 49.8 0 0 1 949.8 670z" class="B F"/> <g transform="translate(954.06 468.68)" class="D" style="animation:Isp12o 4.5s linear infinite normal forwards"> <path d="M35.74-35.06c9.66 9.84 10.18 24.98 1.16 33.82L-1.94 36.87c-9.02 8.84-24.15 8.03-33.8-1.8s-10.18-25-1.16-33.83L1.94-36.87c9.02-8.84 24.15-8.03 33.8 1.8Z" class="B"/> </g> <g transform="translate(974.28 286.36)" class="E" style="animation:Isp13o 4.5s linear infinite normal forwards"> <path d="M49.32-44.51 34.34 45.34c-1.34 8.08-7.3 11.01-13.29 6.56L-45.67 2.35c-6-4.45-4.9-11 2.44-14.62l81.69-40.3c7.34-3.63 12.2-.02 10.86 8.06Z" class="B"/> </g> <g transform="translate(816.3 400.23)" class="C" style="animation:Isp14o 4.5s linear infinite normal forwards"> <path d="M-38.86-26.66 11.82-45.8a11.52 11.52 0 0 1 14.88 6.75l18.95 50.76c2.23 6-.8 12.68-6.79 14.95L-11.82 45.8a11.52 11.52 0 0 1-14.88-6.75l-18.95-50.76c-2.23-6 .8-12.68 6.79-14.95z" class="B"/> </g> <path d="M809.8 570a49.8 49.8 0 0 1 49.79 49.8v.15a49.8 49.8 0 0 1-99.59 0v-.16A49.8 49.8 0 0 1 809.8 570z" class="B F"/> <g transform="translate(763.34 808)" class="D" style="animation:Isp16o 4.5s linear infinite normal forwards"> <path d="M21.52-45.2c12.45 5.92 18.14 19.96 12.71 31.36L10.84 35.3C5.41 46.7-9.07 51.13-21.52 45.2s-18.14-19.96-12.71-31.36l23.39-49.14c5.43-11.4 19.91-15.83 32.36-9.9z" class="B"/> </g> <g transform="translate(764.76 969.78)" class="E" style="animation:Isp17o 4.5s linear infinite normal forwards"> <path d="m-19.42-50.75 63.83 65c5.74 5.83 4.6 12.37-2.52 14.6l-79.33 24.77c-7.13 2.23-11.78-2.5-10.39-10.57l15.5-89.77c1.4-8.06 7.17-9.87 12.9-4.03Z" class="B"/></g><g transform="translate(483.33 918.26)" class="C" style="animation:Isp18o 4.5s linear infinite normal forwards"> <path d="m-33.33-33.32 53.34-9.54a11.52 11.52 0 0 1 13.4 9.36l9.32 53.38c1.1 6.3-3.1 12.32-9.4 13.44l-53.34 9.55a11.52 11.52 0 0 1-13.4-9.37l-9.32-53.37a11.63 11.63 0 0 1 9.4-13.45z" class="B"/> </g> <g transform="translate(173.69 682.82)" class="C" style="animation:Isp19o 4.5s linear infinite normal forwards"> <path d="M-40.8-23.6 8.28-46.58a11.53 11.53 0 0 1 15.36 5.6L46.4 8.18c2.69 5.8.18 12.7-5.61 15.41L-8.27 46.58a11.53 11.53 0 0 1-15.36-5.6L-46.4-8.18A11.64 11.64 0 0 1-40.8-23.6z" class="B"/> </g> <g transform="translate(73.3 544.89)" class="F" style="animation:Isp20o 4.5s linear infinite normal forwards"> <path d="M0-49.87A49.8 49.8 0 0 1 49.8-.07v.15a49.8 49.8 0 0 1-99.6 0v-.16A49.8 49.8 0 0 1 0-49.88Z" class="B"/> </g> <g transform="translate(64.56 906.7)" class="C" style="animation:Isp21o 4.5s linear infinite normal forwards"> <path d="m-12.4-45.47 51.05 18.19a11.52 11.52 0 0 1 6.97 14.78L27.23 38.46a11.64 11.64 0 0 1-14.84 7l-51.03-18.18a11.52 11.52 0 0 1-6.98-14.78l18.39-50.96a11.64 11.64 0 0 1 14.84-7z" class="B"/> </g> <g transform="translate(585.3 1067.91)" class="E" style="animation:Isp22o 4.5s linear infinite normal forwards"> <path d="m-44.4-6.76 81.07-41.55c7.28-3.73 13.19-.71 13.19 6.76v83.1c0 7.48-5.9 10.5-13.2 6.77L-44.4 6.77c-7.28-3.74-7.28-9.8 0-13.53Z" class="B"/> </g> <g transform="translate(952.47 1062.68)" class="C" style="animation:Isp23o 4.5s linear infinite normal forwards"> <path d="m-16.1-44.3 52.36 13.93a11.52 11.52 0 0 1 8.18 14.15L30.3 36.08A11.64 11.64 0 0 1 16.1 44.3l-52.37-13.92a11.53 11.53 0 0 1-8.17-14.16l14.13-52.3A11.64 11.64 0 0 1-16.1-44.3z" class="B"/> </g> <path d="M636.62 451.63a49.8 49.8 0 0 1 49.8 49.8v.15a49.8 49.8 0 0 1-99.6 0v-.16a49.8 49.8 0 0 1 49.8-49.8Z" class="B F"/> <g transform="translate(482.84 727.48)" class="D" style="animation:Isp25o 4.5s linear infinite normal forwards"> <path d="M24.7-43.55c12 6.8 16.66 21.22 10.43 32.2L8.28 35.98c-6.22 10.98-21 14.37-32.98 7.57s-16.66-21.22-10.44-32.2l26.86-47.33c6.22-10.98 21-14.37 32.98-7.57Z" class="B"/> </g> <g transform="translate(223.54 446.8)" class="E" style="animation:Isp26o 4.5s linear infinite normal forwards"> <path d="m48.75-44.9-12.4 90.25c-1.1 8.1-6.97 11.21-13.09 6.93L-44.85 4.66c-6.12-4.28-5.22-10.85 2.02-14.68l80.5-42.63c7.24-3.83 12.2-.36 11.08 7.75Z" class="B"/> </g> <path d="M262.52 780.87a49.8 49.8 0 0 1 49.8 49.8v.15a49.8 49.8 0 1 1-99.59 0v-.16a49.8 49.8 0 0 1 49.8-49.79Z" class="B F"/> <g transform="translate(412.1 350.5)" class="C" style="animation:Isp28o 4.5s linear infinite normal forwards"> <path d="m-8.34-46.38 49.24 22.6a11.52 11.52 0 0 1 5.65 15.34l-22.8 49.15a11.64 11.64 0 0 1-15.4 5.67l-49.25-22.6a11.53 11.53 0 0 1-5.65-15.34l22.81-49.15c2.7-5.8 9.58-8.34 15.4-5.67z" class="B"/> </g> <g transform="translate(966.6 936.17)" style="animation:I1-u-io 4500ms linear infinite normal forwards"> <g id="I1-u-i"> <g transform="translate(-1024)" style="animation:I1-up69o 4500ms linear infinite normal forwards"> <path id="I1-up69" d="m965.7 889.52 48.51 77.1c4.36 6.93 1.87 13.08-5.57 13.73l-82.8 7.3c-7.43.65-10.96-4.96-7.88-12.55l34.27-84.4c3.08-7.58 9.11-8.11 13.47-1.18Z" transform="translate(-966.6 -936.17)" opacity=".75" fill="#35a853"/></g></g></g></svg>