<svg xmlns="http://www.w3.org/2000/svg" viewBox="0 0 1024 1024" fill-rule="nonzero" stroke-linecap="round" stroke-linejoin="round"><path d="M450.006 884.936l53.334-9.543a11.523 11.523 0 0 1 13.393 9.367l9.328 53.373c1.101 6.3-3.109 12.32-9.405 13.446l-53.335 9.543a11.524 11.524 0 0 1-13.392-9.367l-9.328-53.373c-1.101-6.3 3.109-12.32 9.405-13.446zM132.894 659.225l49.067-22.981a11.523 11.523 0 0 1 15.355 5.594l22.785 49.159a11.64 11.64 0 0 1-5.617 15.417l-49.067 22.982a11.524 11.524 0 0 1-15.356-5.595l-22.784-49.158a11.64 11.64 0 0 1 5.617-15.418zM52.166 861.236l51.039 18.187a11.524 11.524 0 0 1 6.977 14.779l-18.391 50.965a11.64 11.64 0 0 1-14.839 7.005l-51.038-18.186a11.524 11.524 0 0 1-6.978-14.779l18.392-50.965a11.64 11.64 0 0 1 14.838-7.006zM936.367-5.608L988.731 8.31a11.524 11.524 0 0 1 8.171 14.154L982.774 74.77a11.64 11.64 0 0 1-14.211 8.205l-52.364-13.919a11.524 11.524 0 0 1-8.171-14.153l14.128-52.308a11.64 11.64 0 0 1 14.211-8.204zM539.168 156.211l49.067-22.982a11.524 11.524 0 0 1 15.356 5.595l22.784 49.158a11.64 11.64 0 0 1-5.617 15.418l-49.067 22.982a11.525 11.525 0 0 1-15.356-5.595l-22.784-49.158a11.64 11.64 0 0 1 5.617-15.418zM777.437 373.57l50.685-19.148a11.524 11.524 0 0 1 14.882 6.757l18.943 50.762a11.64 11.64 0 0 1-6.784 14.941l-50.685 19.148a11.524 11.524 0 0 1-14.882-6.757l-18.943-50.762a11.64 11.64 0 0 1 6.784-14.941zm158.93 644.82l52.364 13.92c6.18 1.64 9.839 7.98 8.171 14.15l-14.128 52.31a11.64 11.64 0 0 1-14.211 8.21l-52.364-13.92a11.53 11.53 0 0 1-8.171-14.16l14.128-52.3a11.64 11.64 0 0 1 14.211-8.21zM403.763 304.114l49.24 22.608a11.525 11.525 0 0 1 5.649 15.336l-22.806 49.148a11.64 11.64 0 0 1-15.398 5.672l-49.239-22.608a11.524 11.524 0 0 1-5.65-15.336l22.806-49.148a11.64 11.64 0 0 1 15.398-5.672z" opacity=".754" fill="#ea4235"/><path d="M73.294 495.016c27.501 0 49.795 22.294 49.795 49.794v.155c0 27.501-22.294 49.795-49.795 49.795s-49.795-22.294-49.795-49.795v-.155c0-27.5 22.294-49.794 49.795-49.794zM293.303 98.447c27.501 0 49.795 22.294 49.795 49.795v.154c0 27.501-22.294 49.795-49.795 49.795s-49.795-22.294-49.795-49.795v-.154c0-27.501 22.294-49.795 49.795-49.795zM949.795 670c27.501 0 49.795 22.294 49.795 49.795v.154c0 27.501-22.294 49.795-49.795 49.795S900 747.45 900 719.949v-.154C900 692.294 922.294 670 949.795 670zm-140-100c27.501 0 49.795 22.294 49.795 49.795v.154c0 27.501-22.294 49.795-49.795 49.795S760 647.45 760 619.949v-.154C760 592.294 782.294 570 809.795 570zM636.624 451.627c27.501 0 49.795 22.293 49.795 49.794v.155c0 27.501-22.294 49.795-49.795 49.795s-49.795-22.294-49.795-49.795v-.155c0-27.501 22.294-49.794 49.795-49.794zM262.525 780.87c27.501 0 49.794 22.294 49.794 49.795v.154c0 27.501-22.293 49.795-49.794 49.795s-49.795-22.294-49.795-49.795v-.154c0-27.501 22.294-49.795 49.795-49.795z" opacity=".754" fill="#4286f5"/><path d="M141.958 1018.64c12.953 4.71 19.953 18.15 15.635 30.02l-18.612 51.14c-4.319 11.86-18.32 17.66-31.273 12.94-12.954-4.71-19.954-18.15-15.636-30.02l18.613-51.13c4.318-11.87 18.319-17.66 31.273-12.95zm203.749-483.214c13.285-3.677 26.785 3.206 30.153 15.374l14.516 52.448c3.367 12.168-4.672 25.013-17.957 28.69s-26.786-3.207-30.153-15.375l-14.516-52.447c-3.368-12.168 4.672-25.013 17.957-28.69zM170.883 252.543c-2.352 13.583-14.344 22.847-26.784 20.693l-53.621-9.285c-12.44-2.155-20.619-14.912-18.267-28.494s14.344-22.847 26.784-20.693l53.621 9.285c12.44 2.154 20.619 14.911 18.267 28.494zm818.922 181.075c9.654 9.84 10.173 24.985 1.16 33.826l-38.847 38.11c-9.013 8.842-24.144 8.032-33.798-1.808s-10.173-24.985-1.16-33.827l38.847-38.109c9.013-8.842 24.145-8.032 33.798 1.808zM784.858 762.799c12.446 5.925 18.137 19.97 12.71 31.369l-23.391 49.136c-5.426 11.4-19.915 15.838-32.362 9.913s-18.137-19.969-12.71-31.369l23.391-49.136c5.426-11.4 19.915-15.838 32.362-9.913zm-277.317-78.872c11.99 6.801 16.66 21.217 10.43 32.198l-26.85 47.335c-6.229 10.981-20.999 14.37-32.989 7.569s-16.66-21.218-10.431-32.199l26.851-47.334c6.229-10.982 20.999-14.371 32.989-7.569zM142.113-5.36c12.953 4.715 19.953 18.154 15.635 30.018l-18.612 51.138c-4.318 11.864-18.32 17.66-31.273 12.945S87.909 70.587 92.227 58.723L110.84 7.585c4.318-11.864 18.319-17.66 31.273-12.945z" opacity=".754" fill="#f5bf05"/><path d="M540.9 1061.15l81.065-41.55c7.284-3.73 13.189-.71 13.189 6.76v83.11c0 7.47-5.905 10.49-13.189 6.76l-81.065-41.55c-7.284-3.74-7.284-9.79 0-13.53zm0-1023.996l81.065-41.555c7.284-3.734 13.189-.707 13.189 6.761v83.109c0 7.468-5.905 10.494-13.189 6.76L540.9 50.675c-7.284-3.734-7.284-9.787 0-13.521zm261.605 50.181l35.027 84.093c3.147 7.556-.336 13.203-7.781 12.614l-82.849-6.559c-7.445-.59-9.996-6.715-5.699-13.682l47.823-77.533c4.297-6.966 10.331-6.489 13.479 1.067zm163.198 802.181l48.507 77.105c4.36 6.928 1.87 13.076-5.57 13.731l-82.791 7.296c-7.439.656-10.973-4.961-7.893-12.544l34.278-84.401c3.08-7.583 9.11-8.115 13.469-1.187zm57.897-647.671l-14.98 89.857c-1.34 8.074-7.29 11.01-13.286 6.557l-66.722-49.551c-5.995-4.452-4.904-10.997 2.436-14.619l81.692-40.306c7.34-3.621 12.2-.012 10.86 8.062zM745.342 919.029l63.833 64.991c5.735 5.839 4.607 12.378-2.521 14.604l-79.33 24.776c-7.128 2.23-11.778-2.51-10.385-10.57l15.496-89.769c1.393-8.066 7.171-9.871 12.907-4.032zM272.297 401.902l-12.396 90.248c-1.114 8.109-6.978 11.214-13.098 6.935l-68.111-47.623c-6.121-4.279-5.218-10.853 2.016-14.683l80.508-42.625c7.234-3.83 12.195-.361 11.081 7.748z" opacity=".754" fill="#35a853"/></svg>
