<svg xmlns="http://www.w3.org/2000/svg" viewBox="0 0 1024 1024"><style><![CDATA[#csfondo-1-min-1-1-u-i_tr {animation: csfondo-1-min-1-1-u-i_tr__tr 4500ms linear infinite normal forwards}@keyframes csfondo-1-min-1-1-u-i_tr__tr { 0% {transform: translate(966.6px,936.174px) rotate(0deg)} 100% {transform: translate(966.6px,936.174px) rotate(0deg)}} #csfondo-1-min-1-1-s-path1_tr {animation: csfondo-1-min-1-1-s-path1_tr__tr 4500ms linear infinite normal forwards}@keyframes csfondo-1-min-1-1-s-path1_tr__tr { 0% {transform: translate(-0.001374px,0.000428px) rotate(360deg)} 100% {transform: translate(-0.001374px,0.000428px) rotate(0deg)}} #csfondo-1-min-1-1-u-path69_tr {animation: csfondo-1-min-1-1-u-path69_tr__tr 4500ms linear infinite normal forwards}@keyframes csfondo-1-min-1-1-u-path69_tr__tr { 0% {transform: translate(-1024.006009px,0.000436px) rotate(360deg)} 100% {transform: translate(-1024.006009px,0.000436px) rotate(0deg)}}#A{animation:csfondo-1-min-1-s-path1_tr__tr 4.5s linear infinite normal forwards}#B{animation:csfondo-1-min-1-s-path2_tr__tr 4.5s linear infinite normal forwards}#C{animation:csfondo-1-min-1-s-path4_tr__tr 4.5s linear infinite normal forwards}#D{animation:csfondo-1-min-1-s-path5_tr__tr 4.5s linear infinite normal forwards}#E{animation:csfondo-1-min-1-s-path6_tr__tr 4.5s linear infinite normal forwards}#F{animation:csfondo-1-min-1-s-path7_tr__tr 4.5s linear infinite normal forwards}#G{animation:csfondo-1-min-1-s-path8_tr__tr 4.5s linear infinite normal forwards}#H{animation:csfondo-1-min-1-s-path9_tr__tr 4.5s linear infinite normal forwards}#I{animation:csfondo-1-min-1-s-path10_tr__tr 4.5s linear infinite normal forwards}#J{animation:csfondo-1-min-1-s-path12_tr__tr 4.5s linear infinite normal forwards}#K{animation:csfondo-1-min-1-s-path13_tr__tr 4.5s linear infinite normal forwards}#L{animation:csfondo-1-min-1-s-path14_tr__tr 4.5s linear infinite normal forwards}#M{animation:csfondo-1-min-1-s-path16_tr__tr 4.5s linear infinite normal forwards}#N{animation:csfondo-1-min-1-s-path17_tr__tr 4.5s linear infinite normal forwards}#O{animation:csfondo-1-min-1-s-path18_tr__tr 4.5s linear infinite normal forwards}#P{animation:csfondo-1-min-1-s-path19_tr__tr 4.5s linear infinite normal forwards}#Q{animation:csfondo-1-min-1-s-path20_tr__tr 4.5s linear infinite normal forwards}#R{animation:csfondo-1-min-1-s-path21_tr__tr 4.5s linear infinite normal forwards}#S{animation:csfondo-1-min-1-s-path22_tr__tr 4.5s linear infinite normal forwards}#T{animation:csfondo-1-min-1-s-path23_tr__tr 4.5s linear infinite normal forwards}#U{animation:csfondo-1-min-1-s-path25_tr__tr 4.5s linear infinite normal forwards}#V{animation:csfondo-1-min-1-s-path26_tr__tr 4.5s linear infinite normal forwards}#W{animation:csfondo-1-min-1-s-path28_tr__tr 4.5s linear infinite normal forwards}@keyframes csfondo-1-min-1-s-path1_tr__tr{0%{transform:translate(124.987549px,41.690498px) rotate(360deg)}100%{transform:translate(124.987549px,41.690498px) rotate(0deg)}} @keyframes csfondo-1-min-1-s-path2_tr__tr{0%{transform:translate(124.832497px,1065.692108px) rotate(360deg)}100%{transform:translate(124.832497px,1065.692108px) rotate(0deg)}} @keyframes csfondo-1-min-1-s-path4_tr__tr{0%{transform:translate(585.295532px,43.914104px) rotate(360deg)}100%{transform:translate(585.295532px,43.914104px) rotate(0deg)}} @keyframes csfondo-1-min-1-s-path5_tr__tr{0%{transform:translate(952.465088px,38.682964px) rotate(360deg)}100%{transform:translate(952.465088px,38.682964px) rotate(0deg)}} @keyframes csfondo-1-min-1-s-path6_tr__tr{0%{transform:translate(579.963074px,179.805344px) rotate(360deg)}100%{transform:translate(579.963074px,179.805344px) rotate(0deg)}} @keyframes csfondo-1-min-1-s-path7_tr__tr{0%{transform:translate(359.06282px,583.682007px) rotate(360deg)}100%{transform:translate(359.06282px,583.682007px) rotate(0deg)}} @keyframes csfondo-1-min-1-s-path8_tr__tr{0%{transform:translate(788.903381px,132.71228px) rotate(360deg)}100%{transform:translate(788.903381px,132.71228px) rotate(0deg)}} @keyframes csfondo-1-min-1-s-path9_tr__tr{0%{transform:translate(121.546993px,244px) rotate(360deg)}100%{transform:translate(121.546993px,244px) rotate(0deg)}} @keyframes csfondo-1-min-1-s-path10_tr__tr{0%{transform:translate(966.60022px,936.174438px) rotate(360deg)}100%{transform:translate(966.60022px,936.174438px) rotate(0deg)}} @keyframes csfondo-1-min-1-s-path12_tr__tr{0%{transform:translate(954.0625px,468.681992px) rotate(360deg)}100%{transform:translate(954.0625px,468.681992px) rotate(0deg)}} @keyframes csfondo-1-min-1-s-path13_tr__tr{0%{transform:translate(974.282166px,286.357002px) rotate(360deg)}100%{transform:translate(974.282166px,286.357002px) rotate(0deg)}} @keyframes csfondo-1-min-1-s-path14_tr__tr{0%{transform:translate(816.300049px,400.225998px) rotate(360deg)}100%{transform:translate(816.300049px,400.225998px) rotate(0deg)}} @keyframes csfondo-1-min-1-s-path16_tr__tr{0%{transform:translate(763.336426px,808.008026px) rotate(360deg)}100%{transform:translate(763.336426px,808.008026px) rotate(0deg)}} @keyframes csfondo-1-min-1-s-path17_tr__tr{0%{transform:translate(764.763611px,969.776825px) rotate(360deg)}100%{transform:translate(764.763611px,969.776825px) rotate(0deg)}} @keyframes csfondo-1-min-1-s-path18_tr__tr{0%{transform:translate(483.331039px,918.257233px) rotate(360deg)}100%{transform:translate(483.331039px,918.257233px) rotate(0deg)}} @keyframes csfondo-1-min-1-s-path19_tr__tr{0%{transform:translate(173.688789px,682.819885px) rotate(360deg)}100%{transform:translate(173.688789px,682.819885px) rotate(0deg)}} @keyframes csfondo-1-min-1-s-path20_tr__tr{0%{transform:translate(73.293999px,544.888px) rotate(360deg)}100%{transform:translate(73.293999px,544.888px) rotate(0deg)}} @keyframes csfondo-1-min-1-s-path21_tr__tr{0%{transform:translate(64.559048px,906.704224px) rotate(360deg)}100%{transform:translate(64.559048px,906.704224px) rotate(0deg)}} @keyframes csfondo-1-min-1-s-path22_tr__tr{0%{transform:translate(585.295532px,1067.914978px) rotate(360deg)}100%{transform:translate(585.295532px,1067.914978px) rotate(0deg)}} @keyframes csfondo-1-min-1-s-path23_tr__tr{0%{transform:translate(952.465942px,1062.684937px) rotate(360deg)}100%{transform:translate(952.465942px,1062.684937px) rotate(0deg)}} @keyframes csfondo-1-min-1-s-path25_tr__tr{0%{transform:translate(482.836349px,727.477692px) rotate(360deg)}100%{transform:translate(482.836349px,727.477692px) rotate(0deg)}} @keyframes csfondo-1-min-1-s-path26_tr__tr{0%{transform:translate(223.542747px,446.801025px) rotate(360deg)}100%{transform:translate(223.542747px,446.801025px) rotate(0deg)}} @keyframes csfondo-1-min-1-s-path28_tr__tr{0%{transform:translate(412.105392px,350.496017px) rotate(360deg)}100%{transform:translate(412.105392px,350.496017px) rotate(0deg)}}.B{opacity:.754}.C{fill:#ea4235}.D{fill:#f5bf05}.E{fill:#35a853}.F{fill:#4286f5}]]></style><g id="A" transform="matrix(1 0 0 1 124.987549 41.690498)" class="D"><path d="M142.113-5.36c12.953 4.715 19.953 18.154 15.635 30.018l-18.612 51.138c-4.318 11.864-18.32 17.66-31.273 12.945S87.909 70.587 92.227 58.723L110.84 7.585c4.318-11.864 18.319-17.66 31.273-12.945z" transform="translate(-124.988 -41.69)" class="B"/></g><g id="B" transform="matrix(1 0 0 1 124.832497 1065.692108)" class="D"><path d="M141.958,1018.64c12.953,4.71,19.953,18.15,15.635,30.02l-18.612,51.14c-4.319,11.86-18.32,17.66-31.273,12.94-12.954-4.71-19.954-18.15-15.636-30.02l18.613-51.13c4.318-11.87,18.319-17.66,31.273-12.95Z" transform="translate(-124.832 -1065.692)" class="B"/></g><path d="M293.303,98.447c27.501,0,49.795,22.294,49.795,49.795v.154c0,27.501-22.294,49.795-49.795,49.795s-49.795-22.294-49.795-49.795v-.154c0-27.501,22.294-49.795,49.795-49.795Z" class="B F"/><g id="C" transform="matrix(1 0 0 1 585.295532 43.914104)" class="E"><path d="M540.9,37.154l81.065-41.555c7.284-3.734,13.189-.707,13.189,6.761v83.109c0,7.468-5.905,10.494-13.189,6.76L540.9,50.675c-7.284-3.734-7.284-9.787,0-13.521Z" transform="translate(-585.296 -43.914)" class="B"/></g><g id="D" transform="matrix(1 0 0 1 952.465088 38.682964)" class="C"><path d="M936.367-5.608L988.731 8.31c2.965.786 5.495 2.721 7.029 5.378s1.945 5.815 1.142 8.776L982.774 74.77c-1.676 6.177-8.024 9.842-14.211 8.205l-52.364-13.919c-2.965-.786-5.494-2.721-7.028-5.378s-1.945-5.815-1.143-8.775l14.128-52.308c1.676-6.176 8.024-9.841 14.211-8.204z" transform="translate(-952.465 -38.683)" class="B"/></g><g id="E" transform="matrix(1 0 0 1 579.963074 179.805344)" class="C"><path d="M539.168 156.211l49.067-22.982c2.777-1.303 5.959-1.446 8.841-.396s5.227 3.206 6.515 5.991l22.784 49.158c2.685 5.81.175 12.697-5.617 15.418l-49.067 22.982c-2.777 1.303-5.959 1.445-8.841.395s-5.227-3.206-6.515-5.99l-22.784-49.158c-2.685-5.81-.175-12.697 5.617-15.418z" transform="translate(-579.963 -179.805)" class="B"/></g><g id="F" transform="matrix(1 0 0 1 359.06282 583.682007)" class="D"><path d="M345.707,535.426c13.285-3.677,26.785,3.206,30.153,15.374l14.516,52.448c3.367,12.168-4.672,25.013-17.957,28.69s-26.786-3.207-30.153-15.375L327.75,564.116c-3.368-12.168,4.672-25.013,17.957-28.69Z" transform="translate(-359.063 -583.682)" class="B"/></g><g id="G" transform="matrix(1 0 0 1 788.903381 132.71228)" class="E"><path d="M802.505,87.335l35.027,84.093c3.147,7.556-.336,13.203-7.781,12.614l-82.849-6.559c-7.445-.59-9.996-6.715-5.699-13.682l47.823-77.533c4.297-6.966,10.331-6.489,13.479,1.067Z" transform="translate(-788.903 -132.712)" class="B"/></g><g id="H" transform="matrix(1 0 0 1 121.546993 244)" class="D"><path d="M170.883,252.543c-2.352,13.583-14.344,22.847-26.784,20.693l-53.621-9.285c-12.44-2.155-20.619-14.912-18.267-28.494s14.344-22.847,26.784-20.693l53.621,9.285c12.44,2.154,20.619,14.911,18.267,28.494Z" transform="translate(-121.547 -244)" class="B"/></g><g id="I" transform="matrix(1 0 0 1 966.60022 936.174438)" class="E"><path d="M965.703,889.516l48.507,77.105c4.36,6.928,1.87,13.076-5.57,13.731l-82.791,7.296c-7.439.656-10.973-4.961-7.893-12.544l34.278-84.401c3.08-7.583,9.11-8.115,13.469-1.187Z" transform="translate(-966.6 -936.174)" class="B"/></g><path d="M949.795 670c27.501 0 49.795 22.294 49.795 49.795v.154c0 27.501-22.294 49.795-49.795 49.795S900 747.45 900 719.949v-.154C900 692.294 922.294 670 949.795 670z" class="B F"/><g id="J" transform="matrix(1 0 0 1 954.0625 468.681992)" class="D"><path d="M989.805,433.618c9.654,9.84,10.173,24.985,1.16,33.826l-38.847,38.11c-9.013,8.842-24.144,8.032-33.798-1.808s-10.173-24.985-1.16-33.827l38.847-38.109c9.013-8.842,24.145-8.032,33.798,1.808Z" transform="translate(-954.062 -468.682)" class="B"/></g><g id="K" transform="matrix(1 0 0 1 974.282166 286.357002)" class="E"><path d="M1023.6,241.845l-14.98,89.857c-1.34,8.074-7.29,11.01-13.286,6.557l-66.722-49.551c-5.995-4.452-4.904-10.997,2.436-14.619l81.692-40.306c7.34-3.621,12.2-.012,10.86,8.062Z" transform="translate(-974.282 -286.357)" class="B"/></g><g id="L" transform="matrix(1 0 0 1 816.300049 400.225998)" class="C"><path d="M777.437 373.57l50.685-19.148c2.869-1.087 6.053-.984 8.846.284s4.966 3.598 6.036 6.473l18.943 50.762c2.23 5.998-.8 12.672-6.784 14.941l-50.685 19.148c-2.869 1.087-6.053.984-8.846-.284s-4.966-3.598-6.036-6.473l-18.943-50.762c-2.23-5.998.8-12.672 6.784-14.941z" transform="translate(-816.3 -400.226)" class="B"/></g><path d="M809.795 570c27.501 0 49.795 22.294 49.795 49.795v.154c0 27.501-22.294 49.795-49.795 49.795S760 647.45 760 619.949v-.154C760 592.294 782.294 570 809.795 570z" class="B F"/><g id="M" transform="matrix(1 0 0 1 763.336426 808.008026)" class="D"><path d="M784.858 762.799c12.446 5.925 18.137 19.97 12.71 31.369l-23.391 49.136c-5.426 11.4-19.915 15.838-32.362 9.913s-18.137-19.969-12.71-31.369l23.391-49.136c5.426-11.4 19.915-15.838 32.362-9.913z" transform="translate(-763.336 -808.008)" class="B"/></g><g id="N" transform="matrix(1 0 0 1 764.763611 969.776825)" class="E"><path d="M745.342,919.029l63.833,64.991c5.735,5.839,4.607,12.378-2.521,14.604l-79.33,24.776c-7.128,2.23-11.778-2.51-10.385-10.57l15.496-89.769c1.393-8.066,7.171-9.871,12.907-4.032Z" transform="translate(-764.764 -969.777)" class="B"/></g><g id="O" transform="matrix(1 0 0 1 483.331039 918.257233)" class="C"><path d="M450.006 884.936l53.334-9.543a11.523 11.523 0 0 1 13.393 9.367l9.328 53.373c1.101 6.3-3.109 12.32-9.405 13.446l-53.335 9.543a11.524 11.524 0 0 1-13.392-9.367l-9.328-53.373c-1.101-6.3 3.109-12.32 9.405-13.446z" transform="translate(-483.331 -918.257)" class="B"/></g><g id="P" transform="matrix(1 0 0 1 173.688789 682.819885)" class="C"><path d="M132.894 659.225l49.067-22.981c2.777-1.303 5.959-1.446 8.841-.396s5.227 3.206 6.514 5.99l22.785 49.159c2.684 5.809.175 12.696-5.617 15.417l-49.067 22.982c-2.777 1.303-5.959 1.446-8.841.396s-5.227-3.206-6.515-5.991l-22.784-49.158c-2.685-5.81-.175-12.697 5.617-15.418z" transform="translate(-173.689 -682.82)" class="B"/></g><g id="Q" transform="matrix(1 0 0 1 73.293999 544.888)" class="F"><path d="M73.294,495.016c27.501,0,49.795,22.294,49.795,49.794v.155c0,27.501-22.294,49.795-49.795,49.795s-49.795-22.294-49.795-49.795v-.155c0-27.5,22.294-49.794,49.795-49.794Z" transform="translate(-73.294 -544.888)" class="B"/></g><g id="R" transform="matrix(1 0 0 1 64.559048 906.704224)" class="C"><path d="M52.166 861.236l51.039 18.187a11.524 11.524 0 0 1 6.977 14.779l-18.391 50.965a11.64 11.64 0 0 1-14.839 7.005l-51.038-18.186a11.524 11.524 0 0 1-6.978-14.779l18.392-50.965a11.64 11.64 0 0 1 14.838-7.006z" transform="translate(-64.559 -906.704)" class="B"/></g><g id="S" transform="matrix(1 0 0 1 585.295532 1067.914978)" class="E"><path d="M540.9,1061.15l81.065-41.55c7.284-3.73,13.189-.71,13.189,6.76v83.11c0,7.47-5.905,10.49-13.189,6.76L540.9,1074.68c-7.284-3.74-7.284-9.79,0-13.53Z" transform="translate(-585.296 -1067.915)" class="B"/></g><g id="T" transform="matrix(1 0 0 1 952.465942 1062.684937)" class="C"><path d="M936.367 1018.39l52.364 13.92c6.18 1.64 9.839 7.98 8.171 14.15l-14.128 52.31c-1.674 6.179-8.022 9.847-14.211 8.21l-52.364-13.92a11.53 11.53 0 0 1-8.171-14.16l14.128-52.3c1.674-6.179 8.022-9.847 14.211-8.21z" transform="translate(-952.466 -1062.685)" class="B"/></g><path d="M636.624,451.627c27.501,0,49.795,22.293,49.795,49.794v.155c0,27.501-22.294,49.795-49.795,49.795s-49.795-22.294-49.795-49.795v-.155c0-27.501,22.294-49.794,49.795-49.794Z" class="B F"/><g id="U" transform="matrix(1 0 0 1 482.836349 727.477692)" class="D"><path d="M507.541,683.927c11.99,6.801,16.66,21.217,10.43,32.198l-26.85,47.335c-6.229,10.981-20.999,14.37-32.989,7.569s-16.66-21.218-10.431-32.199l26.851-47.334c6.229-10.982,20.999-14.371,32.989-7.569Z" transform="translate(-482.836 -727.478)" class="B"/></g><g id="V" transform="matrix(1 0 0 1 223.542747 446.801025)" class="E"><path d="M272.297,401.902L259.901,492.15c-1.114,8.109-6.978,11.214-13.098,6.935l-68.111-47.623c-6.121-4.279-5.218-10.853,2.016-14.683l80.508-42.625c7.234-3.83,12.195-.361,11.081,7.748Z" transform="translate(-223.543 -446.801)" class="B"/></g><path d="M262.525,780.87c27.501,0,49.794,22.294,49.794,49.795v.154c0,27.501-22.293,49.795-49.794,49.795s-49.795-22.294-49.795-49.795v-.154c0-27.501,22.294-49.795,49.795-49.795Z" class="B F"/><g id="W" transform="matrix(1 0 0 1 412.105392 350.496017)" class="C"><path d="M403.763 304.114l49.24 22.608c2.789 1.278 4.953 3.615 6.013 6.494s.929 6.061-.364 8.842l-22.806 49.148c-2.701 5.802-9.579 8.336-15.398 5.672l-49.239-22.608c-2.789-1.278-4.953-3.615-6.014-6.493s-.93-6.061.364-8.843l22.806-49.148c2.701-5.802 9.579-8.336 15.398-5.672z" transform="translate(-412.105 -350.496)" class="B"/></g><g id="csfondo-1-min-1-1-u-i_tr" transform="translate(966.6,936.174) rotate(0)"><g id="csfondo-1-min-1-1-u-i" transform="translate(0,0)"><g id="csfondo-1-min-1-1-s-path1_tr" transform="translate(-0.001374,0.000428) rotate(360)"></g><g id="csfondo-1-min-1-1-u-path69_tr" transform="translate(-1024.006009,0.000436) rotate(360)"><path id="csfondo-1-min-1-1-u-path69" d="M965.703,889.516l48.507,77.105c4.36,6.928,1.87,13.076-5.57,13.731l-82.791,7.296c-7.439.656-10.973-4.961-7.893-12.544l34.278-84.401c3.08-7.583,9.11-8.115,13.469-1.187Z" transform="translate(-966.598602,-936.174449)" opacity="0.754" fill="#35a853"/></g></g></g></svg>
