<?xml version="1.0" standalone="no"?>
<!DOCTYPE svg PUBLIC "-//W3C//DTD SVG 20010904//EN"
 "http://www.w3.org/TR/2001/REC-SVG-20010904/DTD/svg10.dtd">
<svg version="1.0" xmlns="http://www.w3.org/2000/svg"
 width="700.000000pt" height="700.000000pt" viewBox="0 0 700.000000 700.000000"
 preserveAspectRatio="xMidYMid meet">
<metadata>
Created by potrace 1.14, written by Peter Selinger 2001-2017
</metadata>
<g transform="translate(0.000000,700.000000) scale(0.100000,-0.100000)"
fill="#000000" stroke="none">
<path d="M1015 6859 c-150 -19 -239 -45 -360 -105 -444 -219 -596 -687 -343
-1057 97 -144 221 -240 405 -316 76 -31 243 -70 313 -73 23 -1 44 -6 47 -12 3
-6 3 -8 -1 -5 -4 4 -28 2 -54 -3 -26 -5 -58 -11 -72 -14 -108 -20 -285 -99
-397 -176 -224 -155 -373 -368 -445 -636 -31 -118 -30 -383 2 -466 5 -14 7
-26 5 -26 -9 0 59 -177 87 -223 15 -26 28 -50 28 -53 0 -5 40 -64 50 -74 3 -3
17 -21 32 -41 46 -62 158 -167 235 -220 139 -96 301 -162 475 -193 131 -24
385 -15 511 17 363 95 651 364 760 712 37 117 45 166 48 320 1 55 4 91 6 80 9
-44 59 -130 105 -181 27 -29 91 -86 141 -126 51 -40 101 -81 112 -90 197 -165
908 -727 1323 -1046 63 -48 141 -108 175 -135 34 -26 90 -62 125 -79 34 -17
62 -31 62 -32 0 0 -89 -1 -198 -1 l-197 0 -65 -32 c-78 -39 -128 -83 -175
-153 -59 -87 -65 -128 -70 -417 -2 -142 -7 -445 -11 -673 -13 -797 -12 -889
10 -945 50 -126 152 -220 286 -259 49 -15 155 -17 1010 -16 1037 0 1008 -2
1120 55 65 33 133 103 167 174 l28 56 0 940 0 940 -34 69 c-40 83 -112 156
-191 196 -94 47 -29 43 -865 55 -242 4 -474 7 -515 7 -73 0 -74 1 -50 17 101
66 156 163 175 311 3 25 8 61 10 80 3 19 7 53 9 75 3 22 9 78 15 125 7 47 14
101 16 120 5 40 14 113 20 150 2 14 6 52 10 85 4 32 8 66 10 75 1 8 6 47 10
85 4 39 8 77 10 85 2 8 6 44 10 80 3 36 8 72 10 80 2 8 7 44 10 80 3 36 7 72
10 80 3 14 6 32 20 150 3 25 8 63 10 84 8 59 11 54 18 -26 24 -298 213 -571
493 -713 38 -19 76 -35 85 -35 8 0 19 -4 25 -9 26 -25 199 -53 315 -52 411 3
755 231 883 584 13 37 22 67 20 67 -2 0 1 11 6 25 28 74 31 314 6 424 -73 319
-346 575 -699 655 -111 25 -302 23 -412 -4 -22 -6 -47 -12 -56 -14 -9 -3 -47
-17 -85 -31 -255 -101 -464 -317 -546 -565 l-18 -55 6 55 c11 97 22 182 39
300 18 124 13 289 -11 355 -43 123 -133 208 -241 230 -49 10 -136 6 -188 -8
-50 -14 -214 -78 -247 -97 -40 -22 -27 -7 28 33 128 94 233 239 287 395 112
325 -75 683 -446 857 -91 43 -144 60 -237 80 -100 21 -172 24 -780 30 -289 2
-799 7 -1135 11 -958 9 -1037 10 -1090 3z m108 -1556 c-7 -2 -19 -2 -25 0 -7
3 -2 5 12 5 14 0 19 -2 13 -5z m823 -8 c291 -2 774 -8 1074 -11 813 -9 883 -8
970 13 14 3 23 3 20 0 -3 -3 -212 -92 -465 -197 -253 -105 -473 -198 -489
-206 -16 -7 -33 -14 -38 -14 -5 0 -28 -9 -51 -19 -23 -10 -98 -42 -167 -71
-69 -28 -152 -63 -185 -78 -69 -30 -160 -89 -191 -123 -22 -24 -91 -142 -86
-146 1 -2 2 -15 1 -30 0 -16 -11 9 -24 57 -43 161 -95 266 -192 390 -149 188
-400 348 -632 401 -25 6 -55 13 -66 16 -11 2 -42 8 -70 11 l-50 7 50 5 c28 3
53 4 56 3 3 -1 244 -5 535 -8z"/>
</g>
</svg>
